# xmcd CD database file
#
# Track frame offsets:
#	150
#	23317
#	40830
#	67757
#
# Disc length: 1519 seconds
#
# Revision: 0
# Processed by: cddbd v1.5.1PL0 Copyright (c) Steve Scherf et al.
# Submitted via: CDex 1.51
#
DISCID=1f05ed04
DTITLE=Eureka! - Small Talk
DYEAR=1999
DGENRE=Rock
TTITLE0=Small Talk
TTITLE1=Where Are You Going To? (Floating Bossa Mix)
TTITLE2=Vast
TTITLE3=English Rose
EXTD=YEAR: 1999
EXTT0=
EXTT1=
EXTT2=
EXTT3=
PLAYORDER=
